<svg xmlns="http://www.w3.org/2000/svg" role="img" style="width: 1em;height: 1em;vertical-align: middle;fill: currentColor;overflow: hidden;" viewBox="0 0 1024 1024" version="1.1" p-id="1101"><title>Coconut drink</title><path d="M788.716824 915.166158c-181.563248 164.47956-447.42707 137.667898-599.866129-47.615873C82.901112 738.78263 63.197698 566.947356 120.319678 408.552046c160.306771-151.560128 248.455869-262.936897 486.074433-215.798889l72.50754-144.306814L860.004099 0.352605c6.442649-1.706662 24.524734 3.106125 27.52846 7.47518 4.002123 5.828251-7.60318 22.707139-14.805294 24.644201l-171.613407 45.994543-57.335313 121.949541c44.970546 21.666075 80.520318 46.830808 116.547954 79.206188l140.586291 126.318595c69.717147 178.388856 32.921512 377.75259-112.187433 509.216771zM356.496113 251.163667c-73.608336 41.949754-132.138313 106.879714-202.563725 166.066756 11.511436 32.144981 32.998312 58.845709 57.173181 69.537947 76.970461 34.030842 142.267353-41.19029 163.259296-16.051157 68.38595 81.902714 192.05922 90.751757 274.217933 14.796761 14.284762-13.209565 41.028157-20.113013 56.550249-12.637833 29.994586 14.446895 63.863296 23.210605 101.973061 13.260764 23.910336-6.23785 50.209999-37.691633 64.324094-67.669152L692.264815 263.579634c-17.783419-15.368492-51.745995-27.792992-72.080874-26.103397 19.464481 17.186087 51.652128 30.301786 52.37746 50.491599 0.563198 15.735425-33.271378 38.442564-48.400937 42.239887-64.98116 16.307156-146.337742 15.889024-212.334366 2.116261-46.847875-9.770641-74.325135-45.047346-62.753965-55.893184l18.380751-17.220221c70.544878-32.656979 147.071607-26.11193 232.455911-26.453262-76.825394-33.800443-172.193673-22.195141-243.421215 18.397817z m190.250158 65.365159l26.350863-52.804126c-75.656331-8.337044-131.037516-9.992507-198.032537 24.405268 54.971586 26.854328 109.57624 28.646323 171.681674 28.390325z m98.20987-27.690593c-5.111453-7.330114-36.932168-23.978603-39.150828-14.668761l-8.260245 34.602575 47.411073-19.933814z m-55.927317 695.823206c232.106046-49.279868 366.266754-296.131475 295.696276-524.047665-37.1967 56.652648-93.550683 69.077149-151.116396 56.729448l-56.157716-15.607425c-97.569872 91.886688-234.922038 86.109636-325.912728-6.18665-73.505937 46.668675-164.573426 43.707616-211.8565-33.698043-46.446809 150.928663-4.497055 320.929275 116.735687 430.898047 92.543752 83.942175 215.474624 116.769821 332.611377 91.903754z" fill="#391A10" p-id="1102"></path><path d="M733.600171 517.343222l44.176948 7.37278c15.470892 172.270473-51.481462 350.838528-188.748295 459.936903-117.136753 24.866067-240.076158-7.961579-332.611377-91.903754-121.241276-109.968773-163.182497-279.969384-116.735687-430.898047 47.27454 77.40566 138.350563 80.366718 211.8565 33.698043 90.99069 92.287753 228.342856 98.064804 325.912728 6.18665l56.157716 15.607425zM211.711434 609.750441c-0.162133-8.302911-18.61115-26.572729-22.365807-20.650611l-12.945032 20.403145c9.727974 104.217321 58.282511 187.98883 133.36711 259.241974l26.700728-2.363727c43.545484-3.857056-121.574075-91.920821-124.748466-256.630781z" fill="#91BA54" p-id="1103"></path><path d="M589.028824 984.661439c137.266833-109.098375 204.219187-287.674964 188.748295-459.936903l-44.176948-7.372781c57.574246 12.3477 113.919695-0.0768 151.116396-56.729448 70.570478 227.91619-63.59023 474.767797-295.696276 524.047665z" fill="#7A9C45" p-id="1104"></path><path d="M624.168997 330.224789l80.96405 142.659885c-15.522092-7.47518-42.265487-0.571732-56.550249 12.637833-82.167247 75.96353-205.831983 67.114487-274.217933-14.79676 36.846835-32.255914-7.159448-75.289399 57.267047-113.817296l-19.788747-24.567401c65.996623 13.772763 147.353206 14.190895 212.334365-2.116261z" fill="#F6DFC0" p-id="1105"></path><path d="M356.496113 251.163667l10.956771 8.055445-18.380751 17.220221c-11.571169 10.845838 15.906091 46.122543 62.753965 55.893184l19.788747 24.567401c-64.426494 38.527897-20.411679 81.561382-57.267046 113.817295-20.991944-25.139133-86.288836 50.081999-163.259297 16.051157-24.174869-10.692238-45.661745-37.392967-57.17318-69.537947 70.425412-59.195575 128.955388-124.117001 202.563724-166.066756z" fill="#F9E8CC" p-id="1106"></path><path d="M705.133047 472.876141l-80.96405-142.659885c15.12956-3.797323 48.964136-26.504462 48.400937-42.239887-0.725331-20.189813-32.912979-33.305511-52.37746-50.491598 20.334879-1.689595 54.305988 10.726371 72.080874 26.103396l179.165388 154.888119c-14.114096 29.97752-40.413759 61.431302-64.324095 67.669153-38.118298 9.94984-71.987007 1.177597-101.973061-13.260765z" fill="#E7C59B" p-id="1107"></path><path d="M546.746271 316.528826c-62.113967 0.247466-116.710088-1.544529-171.681674-28.390324 66.995021-34.397775 122.376206-32.750846 198.032537-24.405268l-26.350863 52.804125z" fill="#EAE9E9" p-id="1108"></path><path d="M367.452884 259.219112l-10.956771-8.055445c71.227543-40.592958 166.587288-52.19826 243.421216-18.397817-85.384305 0.341332-161.919567-6.203717-232.455912 26.453262z" fill="#CCB396" p-id="1109"></path><path d="M644.956141 288.838233l-47.411073 19.933814 8.260245-34.602575c2.218661-9.309842 34.047909 7.338647 39.150828 14.668761z" fill="#CCC4C0" p-id="1110"></path><path d="M211.711434 609.750441c3.174392 164.709959 168.29395 252.782257 124.748466 256.630781l-26.700729 2.363727c-75.084599-71.253143-123.639136-155.024652-133.36711-259.241974l12.945033-20.403145c3.754657-5.922117 22.212207 12.3477 22.365806 20.650611z" fill="#B5D08D" p-id="1111"></path></svg>
