<?xml version="1.0" encoding="UTF-8" standalone="no"?>
<!-- Uploaded to: SVG Repo, www.svgrepo.com, Generator: SVG Repo Mixer Tools -->
<svg width="800px" height="800px" viewBox="0 0 64 64" version="1.1" xmlns="http://www.w3.org/2000/svg" xmlns:xlink="http://www.w3.org/1999/xlink">
    
    <title>des-ink-well</title>
    <desc>Created with Sketch.</desc>
    <defs>

</defs>
    <g id="General" stroke="none" stroke-width="1" fill="none" fill-rule="evenodd">
        <g id="SLICES-64px" transform="translate(-720.000000, -400.000000)">

</g>
        <g id="ICONS" transform="translate(-715.000000, -395.000000)">
            <g id="des-ink-well" transform="translate(720.000000, 402.000000)">
                <path d="M48.6836,30.3418 L45.6586,28.8288 C44.6426,28.3208 43.9996,27.2818 43.9996,26.1468 L43.9996,19.9998 L29.9996,19.9998 L29.9996,26.1468 C29.9996,27.2818 29.3576,28.3208 28.3416,28.8288 L25.3166,30.3418 C23.2846,31.3578 21.9996,33.4358 21.9996,35.7078 L21.9996,48.9998 C21.9996,50.6558 23.3426,51.9998 24.9996,51.9998 L48.9996,51.9998 C50.6576,51.9998 51.9996,50.6558 51.9996,48.9998 L51.9996,35.7078 C51.9996,33.4358 50.7156,31.3578 48.6836,30.3418" id="Fill-620" fill="#969CE3">

</path>
                <path d="M4.8018,39.7383 C4.9258,39.9073 4.9998,40.0003 4.9998,40.0003 C4.9998,40.0003 14.7498,34.9163 19.9998,22.0003 C25.2498,9.0843 21.9998,0.0003 21.9998,0.0003 C21.9998,0.0003 8.2898,13.5253 4.8018,39.7383" id="Fill-621" fill="#D2D0BB">

</path>
                <path d="M22,0 C22,0 0,5.5 0,24 C0,32.669 3.882,38.482 4.802,39.738 C8.29,13.525 22,0 22,0" id="Fill-622" fill="#F1F0E2">

</path>
                <path d="M4,52 C4,17.75 22,0 22,0" id="Stroke-623" stroke="#414547" stroke-width="2" stroke-linecap="round" stroke-linejoin="round">

</path>
                <path d="M22,0 C22,0 0,5.5 0,24 C0,33.833 5,40 5,40 C5,40 14.75,34.917 20,22 C25.25,9.083 22,0 22,0 Z" id="Stroke-624" stroke="#414547" stroke-width="2" stroke-linecap="round" stroke-linejoin="round">

</path>
                <path d="M12,28 C12,28 18.292,26.745 21,19.289" id="Stroke-625" stroke="#414547" stroke-width="2" stroke-linecap="round" stroke-linejoin="round">

</path>
                <path d="M7,16 C7,16 5.168,10.193 8.164,7.198" id="Stroke-626" stroke="#414547" stroke-width="2" stroke-linecap="round" stroke-linejoin="round">

</path>
                <path d="M28,20 L46,20" id="Stroke-627" stroke="#414547" stroke-width="2" stroke-linecap="round" stroke-linejoin="round">

</path>
                <path d="M44,20 L44,26.146 C44,27.282 44.642,28.321 45.658,28.829 L48.684,30.342 C50.716,31.358 52,33.436 52,35.708 L52,49 C52,50.657 50.657,52 49,52 L25,52 C23.343,52 22,50.657 22,49 L22,35.708 C22,33.436 23.284,31.358 25.316,30.342 L28.342,28.829 C29.358,28.321 30,27.282 30,26.146 L30,20" id="Stroke-628" stroke="#414547" stroke-width="2" stroke-linecap="round" stroke-linejoin="round">

</path>
                <path d="M29.3457,32.9922 L27.4557,34.1262 C26.5527,34.6682 25.9997,35.6442 25.9997,36.6982 L25.9997,46.0002" id="Stroke-629" stroke="#414547" stroke-width="2" stroke-linecap="round" stroke-linejoin="round">

</path>
            </g>
        </g>
    </g>
</svg>
