<svg xmlns="http://www.w3.org/2000/svg" role="img" style="width: 1em;height: 1em;vertical-align: middle;fill: currentColor;overflow: hidden;" viewBox="0 0 1024 1024" version="1.1" p-id="1037"><title>Tomato juice</title><path d="M437.076878 230.622668c-2.278398 3.225597-8.567458 17.791981-4.753062 17.723714l134.672927-2.321064 11.682121-52.206879 10.052256 37.137028-2.406397 15.044251 160.255833-2.59413-2.030932 58.436205-2.107731 60.458604-6.715726 20.676245c-2.449064 7.534925 14.668785 19.720513 22.22931 17.262915l31.027168-10.077856 16.255983-9.941323 18.338114 10.811722c-28.41597 14.062919-54.64741 21.657577-87.748175 27.127439l-35.182897 552.379158c-1.715198 26.879972-25.66824 53.137011-52.590878 53.171144l-282.965039 0.290133c-20.582379 0.0256-50.022348-22.596243-51.532746-45.866618l-43.443155-669.14917-93.755636-11.886921c-3.148797-7.560525-0.452266-39.509292 0.759466-44.194087-24.157842-18.414914-43.903954-38.09276-59.289538-65.356732l64.853266-20.121579 38.920492-13.209587c-9.770656-10.948255-32.2133-51.839946-31.5477-67.780196C227.020564 60.152445 206.788051-0.289092 229.350161 0.001041c31.5989 0.4096 41.94129 36.189829 53.819677 33.587165l35.694897-7.825058c14.335985 26.257039 23.014376 66.807397 26.154639 99.251096l18.722114-35.916762 83.046313-34.244231 3.524263 90.521505 33.134899 19.626647-46.370085 65.612731z m-31.086901 9.932789l51.737546-61.499669-27.750371-22.570643 4.095996-78.114052-59.579671 34.50023-20.010646 43.775955c-2.030931 4.445862-16.435183 14.540785-18.901314 10.598389-2.466131-3.933863-7.517859-15.086918-8.260258-20.991978L314.453006 45.065527l-31.701301 17.271449-50.31248-47.206351-2.585598 73.890057-23.637308 17.032515 74.905521 78.301785c-13.875186 37.043161-48.605816 4.744528-64.443666-1.570131l-79.24045 14.993051 67.319396 50.449014-16.665583 36.223962 78.779652 4.019196 9.309857-47.069818 129.808931-0.844799z m-25.659707 23.517842l-94.182301 7.935992 93.917768 27.374905 0.273067-35.310897z m20.710379 68.147129l-17.689582 8.627191c-5.469861 2.670931-13.004786-8.703991-16.759449-15.334384-20.829845-36.812762-67.771663-25.659707-67.899662-18.66238l-0.3584 18.722114 39.304492 589.106586 339.25938 0.810666 36.386096-625.100149 6.877859-21.725844-128.767866-2.636797 1.228799 32.196233c0.213333 5.512528-2.559997 18.594114-7.475192 18.86718l-17.527449-50.133281-171.357688 1.049599 4.778662 64.213266z m237.636019 664.464375c10.786122 0 28.057571-9.915723 32.529033-17.587182 4.471462-7.679992 0.520533-32.887432-6.28906-37.86236l-317.15807-0.059734c-6.527993 8.174925-8.209058 35.908229-1.092265 43.724755 5.939194 6.510927 25.036774 11.955188 35.848496 11.955187l256.161866-0.170666z" fill="#371610" p-id="1038"></path><path d="M823.559675 391.0321l-18.338114-10.811722c42.555689-26.02664 75.622321-66.099131 80.093783-113.075082 5.137061-53.922077-17.006916-102.31456-58.163139-137.53159-43.810088-37.486894-100.044696-41.19889-157.892102-16.605849-40.951424 17.416515-71.568992 69.008995-80.537516 117.94761l-10.052256-37.137028C595.685779 117.752385 671.359301 74.138564 740.436562 75.700162c78.079919 1.766398 140.202521 55.910342 158.600368 121.574274 21.742911 77.610586-6.946126 159.829167-75.485788 193.749131zM566.996743 246.025318l-134.672927 2.321064c-3.805863 0.068267 2.474664-14.489585 4.753062-17.723714-5.145595 1.646932 14.233585 8.780791 19.336513 8.772257l110.574818 6.630393z" fill="#64241C" p-id="1039"></path><path d="M298.342089 325.572969c1.476265 3.498663 3.805863 32.3413 11.417588 30.097035l31.121035-9.173324 23.645842-6.954659c3.097597-0.913066 2.269864-10.897055 2.065064-14.037319 3.754663 6.630393 11.289588 18.005315 16.759449 15.334384l17.689582-8.627191 69.674594 16.034117c40.891691 9.412257 103.236159 17.075182 138.163056 16.110916 4.983461-0.136533 17.527448-8.319991 20.095979-10.137589l19.012247 0.2048c12.168521 0.128 43.144488-0.571733 47.180751-12.134388l18.124781-51.899679-36.386095 625.100149-339.25938-0.810666-39.304493-589.106586z m80.18765 101.520961l-32.861832 2.116264 20.275178 314.674872 32.861833-2.116264-20.275179-314.674872z" fill="#C32E27" p-id="1040"></path><path d="M405.989977 240.555457l-129.808931 0.844799-9.309857 47.069818-78.779652-4.019196 16.665583-36.223962-67.319396-50.449014 79.24045-14.993051c15.829317 6.31466 50.568481 38.60476 64.443666 1.570131l-74.905521-78.301785 23.637308-17.032515 2.585598-73.890057 50.31248 47.206351 31.701301-17.271449 12.868253 101.188162c0.750933 5.905061 5.802661 17.058116 8.260258 20.991978 2.474664 3.942396 16.870382-6.152527 18.901314-10.598389l20.010646-43.775955 59.579671-34.50023-4.095996 78.114052 27.750371 22.570643-51.737546 61.499669z" fill="#6E9647" p-id="1041"></path><path d="M805.221561 380.211845l-16.255983 9.941323-53.256478-7.185059 6.715727-20.676245c49.919948 5.222395 85.538044-27.067705 104.319891-71.04846 15.470917-36.223962 14.873585-95.991367-25.20744-120.285741-20.497045-12.42452-54.485277 26.683706-44.433021 45.832486 8.516258 16.230383 16.47785 42.641022 9.506124 57.173273-5.879461 12.262387-27.033572 24.652774-42.06929 27.878371l2.030931-58.436205-61.585002-3.549863 15.146651-34.150365c5.512528-10.077856 30.370102-8.055458 49.698081-4.718928 10.385056-9.506123 21.964777-45.354619 21.879444-65.570065-37.794094-19.114647-73.762056-11.938121-104.917224 11.332255-27.886904 20.829845-44.86822 55.253276-44.236754 92.296437l-36.232495 6.954659 2.406397-15.044251c8.968524-48.947149 39.577559-100.539629 80.537516-117.94761 57.847406-24.601574 114.082014-20.881045 157.892102 16.605849 41.156224 35.21703 63.291667 83.60098 58.16314 137.53159-4.471462 46.975951-37.538094 87.048443-80.093783 113.075082z" fill="#F37857" p-id="1042"></path><path d="M638.676668 996.684803l-256.161866 0.170666c-10.811722 0-29.917836-5.435728-35.848496-11.955187-7.125326-7.816525-5.435728-35.54983 1.092265-43.724755l317.15807 0.059734c6.809593 4.974928 10.751989 30.182369 6.28906 37.86236-4.462929 7.679992-21.742911 17.587182-32.529033 17.587182z" fill="#FCFBFB" p-id="1043"></path><path d="M585.155657 317.090844l23.722642 47.266084c-34.926897 0.972799-97.271365-6.69866-138.163056-16.110916l-69.674594-16.034117-4.778662-64.213266 171.357688-1.049599 17.527449 50.133281z" fill="#FBF9F9" p-id="1044"></path><path d="M742.43336 362.300397l2.107731-60.458604c15.027184-3.225597 36.189829-15.624517 42.06929-27.878371 6.971726-14.532252-0.989866-40.942891-9.506124-57.173273-10.043723-19.14878 23.935975-58.265539 44.433021-45.832486 40.081025 24.302908 40.678358 84.070312 25.20744 120.285741-18.781847 43.980754-54.39141 76.279387-104.319891 71.04846z" fill="#D9362C" p-id="1045"></path><path d="M720.169916 268.664228l-31.231967 30.873568c-7.423992 8.234658-26.094906 23.432509-36.343429 21.751444-10.248523-1.672532-22.30611-18.978114-30.626101-33.271432-2.065065-19.857046-12.270921-21.282111-17.211716-0.913066l43.229822 67.319397-19.012247-0.2048-36.343429-55.995675-1.228798-32.196233 128.767865 2.636797z" fill="#CF4537" p-id="1046"></path><path d="M720.169916 268.664228l-6.877859 21.725844-18.124781 51.899679c-4.036262 11.562655-35.020764 12.262387-47.180751 12.134388l-43.229822-67.319397c4.932262-20.369045 15.146651-18.94398 17.211716 0.913066 8.319991 14.284785 20.386112 31.590367 30.626101 33.271432 10.248523 1.672532 28.919437-13.516786 36.343429-21.751444l31.231967-30.873568z" fill="#F68463" p-id="1047"></path><path d="M366.600151 325.513235c0.2048 3.13173 1.032532 13.124253-2.065064 14.037319l-23.645842 6.954659-31.121034 9.173324c-7.611725 2.244264-9.949856-26.598372-11.417588-30.097035l0.358399-18.722114c0.136533-7.005859 47.069818-18.158914 67.899663 18.662381z" fill="#ECE3E2" p-id="1048"></path><path d="M380.33027 264.073299l-0.273066 35.310897-93.909235-27.374905 94.182301-7.935992z" fill="#64793F" p-id="1049"></path><path d="M622.557218 239.045059l62.429802 0.810666 61.593536 3.549863-160.255833 2.602663 36.232495-6.963192zM628.974278 354.219339c-2.568531 1.817598-15.112518 10.001056-20.095979 10.137589l-23.722642-47.266084c4.915195-0.2816 7.688525-13.354653 7.475192-18.86718l36.343429 55.995675zM788.974111 390.153168l-31.027167 10.077856c-7.560525 2.457597-24.678374-9.72799-22.22931-17.262915l53.256477 7.185059z" fill="#64241C" p-id="1050"></path><path d="M345.695213 429.182887l32.861833-2.118824 20.293952 314.669752-32.861833 2.118825z" fill="#E36860" p-id="1051"></path><path d="M684.98702 239.855725l-62.429802-0.810666c-0.631466-37.043161 16.34985-71.466592 44.236754-92.296437 31.155168-23.278909 67.131663-30.455435 104.917224-11.332255 0.085333 20.215446-11.502921 56.063942-21.879444 65.570065-19.319447-3.33653-44.185554-5.358928-49.698081 4.718928l-15.146651 34.150365z" fill="#D83329" p-id="1052"></path></svg>
